<svg version="1.2" xmlns="http://www.w3.org/2000/svg" viewBox="0 0 474 131" width="474" height="131">
	<style>
		.s0 { fill: #c7a763 } 
		.s1 { fill: #002c4d } 
	</style>
	<g id="Clip-Path">
		<g>
			<path class="s0" d="m128.8 117c-0.4 5.9-4 9.3-9.1 11.5-3.3 1.4-6.7 2-10.2 2.3q-5.25 0.45-10.5 0c-3.8-0.4-7.6-1-11.1-2.6-3.9-1.8-6.9-4.7-9.2-8.2-3.1-4.8-6-9.7-9-14.5-2.6-4.4-5.3-8.8-7.9-13.2-0.1-0.1-0.2-0.3-0.4-0.6v0.8c0 8.8 0 17.6 0 26.5 0 1.3 0.2 2.7 0.4 4 0.6 2.9 2.4 4.5 5.4 4.9 0.7 0.1 1.5 0.2 2.3 0.2v0.9h-39.8v-0.9c0.5 0 1-0.1 1.5-0.2 2.9-0.8 4.6-2.6 4.8-5.6 0.2-3 0.3-5.9 0.3-8.9q0-25 0-50c0-1.8-0.2-3.7-0.6-5.4-0.5-2.7-2.2-4.2-4.8-4.6q-0.2 0-0.3-0.1c0-0.2-0.1-0.5-0.1-0.8h0.8c3.6 0 7.2 0 10.8-0.1 3.4 0 6.7-0.6 9.5-2.6 4.3-3 7.1-7.1 8.2-12.2 2.3-11.1-0.8-20.6-8.8-28.6-3.2-3.1-6.2-4.6-7.1-5.1-2.7-1.4-5.2-2.2-7-2.6-4.1-0.4-10.8-0.7-16.2 1.2-0.6 0.3-1.3 0.5-1.3 0.5-8.7 3.8-14.3 10.4-17.2 19.3-0.6 2-0.9 4-1.3 6 0 0.3 0 0.5 0 0.7 1.1-5.1 3.8-9.2 8-12.2 6.6-4.9 15.5-4 20.8 0 3.9 2.9 6.2 7 7.1 11.8 1.5 9.2-4.5 18.1-13.9 20.4-6.1 1.5-11.7 0.6-16.6-3.4-4-3.2-6.1-7.5-6.3-12.7-0.3-7.9 2.1-15 7-21.3q3.1-4 7.2-6.7c0.6-0.4 3.3-2.2 6.9-3.4 8-2.7 15.5-1.1 18.8-0.2 2.2 1.1 4.5 1.9 6.5 3.2 8 5.2 13 12.5 14.5 21.9q0.5 2.6 0.5 5.3c0 18.9 0 37.9 0 56.9v0.9c1.3-1.5 2.4-2.8 3.5-4.2 4-4.8 7.6-9.7 10.5-15.2 1.4-2.5 2.6-5.1 3-8.1 0.1-1.3 0.1-2.7-0.1-4-0.4-2.3-2.1-3.6-4.3-4.1-1-0.3-2-0.5-3.1-0.7q0-0.3 0-0.7h38.9v0.8c-1.4 0.1-2.7 0.2-3.9 0.4-4.1 0.5-7.8 2.1-11.3 4.2-3.6 2.1-6.8 4.8-9.9 7.6-4.4 4.2-8.7 8.4-12.8 13.1q0.5 0.2 0.9 0.4c5.8 2.5 10.3 6.5 13.3 12 2.3 4.2 4.3 8.6 6.5 12.8 2.2 4.5 4.3 8.9 7 13.1 2.2 3.3 4.7 6.3 8.2 8.4 3.4 2 7 2.8 10.9 1.6 1.6-0.4 2.9-1.2 3.7-2.7q0.2-0.6 0.3-1.2c0.1-0.9-0.2-1.2-1.1-1q-2.3 0.5-4.6-0.3c-3.1-1-4.8-3.7-5-7.2-0.2-4.3 3.4-7.7 7.6-7.8 5.9-0.1 9.6 4.2 9.2 10.3z"/>
			<path class="s1" d="m226.71 117.99c0-3.61 2.34-5.95 5.77-5.95 2.89 0 5.05 1.62 5.41 4.33h-2.7c-0.36-1.27-1.45-1.99-2.71-1.99-1.98 0-3.07 1.45-3.07 3.61 0 2.17 1.09 3.61 3.07 3.61 1.44 0 2.35-0.72 2.71-1.81h2.7c-0.36 2.53-2.7 4.15-5.59 4.15-3.43 0-5.59-2.16-5.59-5.95z"/>
			<path class="s1" d="m284.07 124.12c-3.43 0-5.77-2.52-5.77-6.13 0-3.43 2.34-5.95 5.77-5.95 3.24 0 5.59 2.34 5.59 5.95 0 3.61-2.35 6.13-5.59 6.13zm0-9.74c-1.99 0-3.07 1.45-3.07 3.61 0 2.17 1.08 3.61 3.07 3.61 1.8 0 3.06-1.44 3.06-3.61 0-2.16-1.26-3.61-3.06-3.61z"/>
			<path class="s1" d="m330.96 123.94v-11.72h4.51c2.89 0 4.33 1.44 4.33 3.79q0 2.16-1.8 3.24l1.98 4.69h-2.7l-1.81-4.15h-1.98v4.15zm2.53-6.49h1.98c1.08 0 1.8-0.54 1.8-1.44 0-1.09-0.72-1.63-1.8-1.63h-1.98z"/>
			<path class="s1" d="m383.63 119.98v3.78h-2.52v-11.54h4.69c2.52 0 3.97 1.44 3.97 3.79 0 2.34-1.45 3.97-3.97 3.97zm0-5.6v3.25h1.62q1.99 0 1.99-1.62 0-1.63-1.99-1.63z"/>
			<path class="s0" d="m162.14 88.77h-17.14v-3.07h2.53c1.08 0 1.98-0.72 1.98-2.34v-24.35c0-1.62-0.9-2.35-1.98-2.35h-2.53v-3.06h18.22v3.06h-2.53c-1.08 0-1.98 0.73-1.98 2.35v11l12.08-10.64c1.45-1.26 1.63-2.71-0.18-2.71h-2.7v-3.06h15.15v3.06h-0.9c-2.53 0-3.97 0.91-8.48 4.69l-3.43 3.43 9.02 16.96c1.44 2.88 2.71 3.96 4.51 3.96h1.26v3.07h-18.21v-3.07h1.62c1.44 0 1.8-0.9 0.9-2.7l-6.31-12.27-4.33 3.79v8.84c0 1.62 0.9 2.34 1.98 2.34h1.45z"/>
			<path class="s0" d="m214.08 69.11c2.71 0 3.97-1.08 3.97-3.43v-1.8h2.89v13.17h-2.89v-1.81c0-2.34-1.26-3.42-3.97-3.42h-3.24l0.18 11.36c0 1.8 0.72 2.52 3.06 2.52h2.53c7.39 0 8.84-1.98 9.74-9.92h3.43v12.99h-32.47v-3.07h2.34c1.27 0 1.99-0.72 1.99-2.34v-24.35c0-1.62-0.72-2.35-1.99-2.35h-2.34v-3.06h32.47v12.08h-3.43c-0.9-7.75-2.35-9.02-9.74-9.02h-5.77v12.45z"/>
			<path class="s0" d="m271.44 88.77h-19.12v-3.07h3.07c1.08 0 1.98-0.72 1.98-2.34v-9.74l-8.84-14.43c-1.26-1.8-1.98-2.53-3.96-2.53h-1.09v-3.06h18.58v3.06h-1.62c-1.99 0-2.35 1.09-1.08 2.89l5.77 9.02 5.59-9.02c1.26-2.16 0.72-2.89-1.08-2.89h-1.81v-3.06h12.27v3.06h-1.26c-1.63 0-2.71 0.73-3.97 2.71l-8.3 13.35v10.64c0 1.62 0.72 2.34 1.81 2.34h3.06z"/>
			<path class="s0" d="m292.36 57.21c0-2.53 1.81-3.97 4.33-3.97 3.43 0 5.6 2.52 5.6 5.95 0 5.41-4.33 8.84-9.93 9.38v-3.07c3.61-0.36 5.42-1.98 6.14-3.97-3.79 0.18-6.14-1.8-6.14-4.32z"/>
			<path class="s1" d="m316.35 86.97h2.89c0.9 0 1.44-0.36 1.44-1.81v-27.95c0-1.27-0.54-1.81-1.44-1.81h-2.89v-1.8h14.25v1.8h-3.78c-0.91 0-1.45 0.54-1.45 1.81v27.41c0 1.99 0.18 2.35 6.32 2.35 9.74 0 10.1-0.72 10.64-11.55h1.98v13.35h-27.96z"/>
			<path class="s1" d="m371.73 53.6v1.8h-2.89c-0.9 0-1.44 0.54-1.44 1.81v27.95c0 1.27 0.54 1.81 1.44 1.81h2.89v1.8h-13.35v-1.8h2.89c0.9 0 1.44-0.54 1.44-1.81v-27.95c0-1.27-0.54-1.81-1.44-1.81h-2.89v-1.8z"/>
			<path class="s1" d="m417.18 88.77h-3.42l-21.11-30.3v26.69c0 1.45 0.54 1.81 1.45 1.81h3.24v1.8h-11.18v-1.8h3.07c0.72 0 1.44-0.36 1.44-1.81v-27.95c0-1.27-0.72-1.81-1.44-1.81h-3.07v-1.8h8.66l20.38 29.04v-25.43c0-1.27-0.54-1.81-1.44-1.81h-3.25v-1.8h11.18v1.8h-2.88c-0.91 0-1.63 0.54-1.63 1.81z"/>
			<path class="s1" d="m449.11 88.77h-13.35v-1.8h2.89c0.9 0 1.44-0.36 1.44-1.81v-27.95c0-1.27-0.54-1.81-1.44-1.81h-2.89v-1.8h13.71v1.8h-3.25c-0.9 0-1.44 0.54-1.44 1.81v15.33l14.25-14.25c1.8-1.81 1.8-2.89-0.18-2.89h-2.89v-1.8h13.71v1.8h-1.08c-3.07 0-4.33 0.72-8.3 4.51l-6.31 6.31 10.82 16.78c1.99 3.06 3.07 3.97 5.05 3.97h1.26v1.8h-14.24v-1.8h2.34c1.62 0 2.35-0.54 1.08-2.71l-9.92-14.79-5.59 5.59v10.1c0 1.45 0.54 1.81 1.44 1.81h2.89z"/>
			<path class="s0" d="m456.14 106.99c-1.26 1.8-1.98 4.87-2.34 6.13-0.18-1.8-1.44-3.07-2.71-3.79-1.62-0.9-4.51-0.18-5.41 1.81-0.72 1.98-0.36 4.87 2.35 4.87 2.7 0 2.7-2.89 1.62-3.61-1.08-0.72-2.16 0.18-2.34 0.9 0 0.72 0.18 0.9 0.18 1.08 0 0.18-1.09 0-0.91-1.62 0-1.62 1.45-2.71 3.25-2.53 1.8 0 3.07 2.17 2.71 3.79-0.36 1.45-1.45 2.35-1.99 2.53q0-0.54 0-0.72c-0.18-0.36-1.08-0.36-1.08-0.18-0.18 0-0.18 0.54-0.18 0.9-0.36 0-22.55 0-22.73 0 0 0.18-0.18-0.9-0.18-1.08 0-0.18-1.26-0.18-1.26 0v1.44h-9.92v-0.18h-0.54v0.18c-0.18 0-0.9-0.18-1.26 0.18-0.37 0.18-0.37 0.9-0.37 0.9 0 0 0 0.72 0.37 1.08 0.36 0.18 1.08 0.18 1.26 0.18v0.18h0.54v-0.18h9.92v1.27c0 0.18 1.26 0.18 1.26 0 0 0 0.18-1.27 0.18-1.09 0 0.18 22.37 0.18 22.73 0 0 0.55 0 0.91 0.18 1.09 0 0 0.9 0.18 1.08-0.36q0-0.18 0-0.55c0.54 0.18 1.63 1.09 1.99 2.53 0.36 1.62-0.91 3.61-2.71 3.79-1.8 0.18-3.25-1.08-3.25-2.53-0.18-1.62 0.91-1.8 0.91-1.62 0 0.18-0.18 0.36-0.18 1.08 0.18 0.72 1.26 1.62 2.34 0.9 1.08-0.72 1.08-3.6-1.62-3.6-2.71 0-3.07 2.88-2.35 4.87 0.9 1.98 3.79 2.7 5.41 1.8 1.27-0.72 2.53-1.98 2.71-3.79 0.36 1.26 1.08 4.33 2.34 6.13 1.63 1.99 4.33 1.99 6.14 1.27 1.8-0.54 2.16-1.63 2.7-2.17 0.54-0.36 0.9 0.18 0.9 0.18 0 0-0.36 0.18-0.36 0.54 0 0.36 0.72 1.09 1.45 0.54 0.72-0.54 0.72-2.16-0.36-2.52 1.8 0.18 3.78-1.26 3.6-3.61-0.18-2.88-2.7-4.51-5.23-4.33-1.08 0.18-1.8 0.54-2.34 0.91q0-0.55 0-0.91c0.36 0.36 0.72 0.36 1.08 0.18 0.18-0.36 1.26-0.54 2.52-0.36 1.81 0.18 2.17 0.9 2.35 0.72 0.18-0.36 0.18-0.9 0.18-0.9 0 0 0.9 0.54 1.08 0.36 0.18 0 0-0.54 0-0.54 0 0 1.26 0.36 1.45-0.54-0.19-0.9-1.45-0.36-1.45-0.36 0 0 0.18-0.72 0-0.72-0.18-0.18-1.08 0.36-1.08 0.36 0 0 0-0.54-0.18-0.72-0.18-0.36-0.54 0.36-2.35 0.54-1.26 0.18-2.34 0-2.52-0.18q-0.54-0.54-1.08 0 0-0.36 0-0.72c0.54 0.36 1.26 0.54 2.34 0.72 2.53 0.18 5.05-1.44 5.23-4.33 0.18-2.35-1.8-3.79-3.6-3.61 1.08-0.36 1.08-1.8 0.36-2.34-0.73-0.72-1.63 0-1.45 0.36 0 0.36 0.36 0.72 0.36 0.72 0 0-0.36 0.36-0.9 0-0.54-0.36-0.9-1.44-2.7-2.16-1.81-0.55-4.51-0.55-6.14 1.44zm8.3 3.06q0-0.18 0-0.36 0.18-0.9 0-1.44c0.36 0.54 0.72 0.9 1.62 0.9q-1.08 0.27-1.62 1.08zm-3.25 3.43c1.09-0.36 1.99-1.08 2.53-1.98 0 0.54 0.18 1.26 0.72 1.8 1.26 1.44 3.43 0 3.07-1.08-0.36-0.9-1.27-0.72-1.45-0.54-0.18 0.18-0.72 0.54-0.72 0 0-0.54 0.36-1.63 1.45-1.81 0.9-0.18 2.34 0.55 2.34 2.35 0 1.8-1.26 3.25-3.79 3.43-2.34 0.18-2.52-1.45-4.15-2.17zm-1.26 6.68c-0.72 0-0.72 0.72 0.18 1.08-0.72 0-1.26-0.18-1.26 0.18 0 0 0.18 0.36 0.54 0.72-1.08 0.18-1.62 0.54-2.71 0.36-1.8-0.36-1.44-2.16-1.26-2.34 0.18-0.36 0.72-0.36 0.72 0 0 0.18 0.54 0.72 0.91 0.54 0.36 0 1.08-0.72 0.54-1.45-0.54-0.36-1.27-0.54-1.81-0.36q0-0.18 0-0.18c-0.18-0.36-0.36-0.54-0.36-0.54l0.18-0.18q0.18 0 0.54 0.18c0.54 0.18 0.73 0.36 0.91 0.18 0.36-0.18 0.9-0.54 0.9-0.54 0 0-0.54-0.36-0.9-0.54-0.18-0.18-0.37 0-0.91 0.18q-0.36 0.18-0.54 0.18h-0.18c0 0 0.36-0.36 0.36-0.72 0.54 0.18 1.27 0 1.81-0.54 0.54-0.54 0-1.45-0.54-1.45-0.37-0.18-0.91 0.37-0.91 0.73 0 0.18-0.36 0.36-0.54 0-0.36-0.36-0.72-1.99 1.08-2.35 1.09-0.36 1.63 0.18 2.71 0.36-0.36 0.18-0.54 0.72-0.54 0.72 0 0.36 0.54 0.18 1.26 0.18-0.9 0.18-0.9 0.91-0.18 0.91 0.9 0 1.44 0.54 1.44 1.26-0.18 0.72-1.08 0.54-1.08 0.54 0 0 0.18 0.54 0.72 0.54q0.18 0 0.18 0-0.18 0-0.18 0 0 0 0.36 0-0.36 0-0.36 0 0 0 0.18 0.18 0 0-0.18 0c-0.54 0-0.72 0.54-0.72 0.54 0 0 0.9-0.36 1.08 0.36 0 0.72-0.54 1.45-1.44 1.45zm6.86 5.41c-1.09-0.18-1.45-1.08-1.45-1.63 0.18-0.54 0.54-0.36 0.72 0 0.18 0.18 1.09 0.36 1.45-0.72 0.36-0.9-1.63-2.34-3.07-0.9-0.54 0.36-0.72 1.08-0.72 1.8-0.54-0.9-1.44-1.8-2.53-1.98 1.63-0.9 1.81-2.34 4.15-2.16 2.53 0.18 3.79 1.44 3.79 3.24 0 1.81-1.44 2.53-2.34 2.35zm-2.35 1.8q0.18-0.54 0-1.26 0-0.18 0-0.54 0.54 0.81 1.62 1.08c-0.9 0-1.26 0.36-1.44 0.72zm-11.54-7.57q0.18 0.36 0.18 0.36c0 0 0.54-0.36 0.36-0.91 0-0.54 0-0.72 0-0.72 0 0 0.18-0.18 0.72 0 0.18 0 0.54 0.18 0.72 0.36q-0.18 0.18-0.36 0.36c-0.72 1.09-0.18 3.07 1.08 3.79 1.27 0.72 2.89 0 2.89 0 0 0-0.72 0.54-0.54 1.81 0 0.72 0.9 1.8 1.98 1.26 0.9-0.54 0.54-1.62 0.54-1.62 0 0 0.18-0.19 0.72 0 0.55 0.18 1.27 0.9 1.27 1.98 0 1.26-0.9 2.89-3.07 2.7-2.7-0.36-4.15-4.14-4.69-6.31-0.36-1.26-1.26-2.34-1.8-3.06zm6.49-13.53c2.17-0.18 3.07 1.44 3.07 2.7 0 1.09-0.9 1.81-1.27 1.99-0.54 0.18-0.9 0-0.9 0 0 0 0.54-1.09-0.36-1.63-1.08-0.54-1.98 0.54-1.98 1.27-0.18 1.26 0.54 1.8 0.54 1.8 0 0-1.62-0.72-2.89 0-1.26 0.72-1.8 2.71-1.08 3.79q0.18 0.18 0.36 0.18c-0.18 0.18-0.54 0.36-0.72 0.54-0.54 0.18-0.72-0.18-0.72-0.18 0 0 0 0 0-0.54 0-0.54-0.18-0.9-0.18-0.9 0.36-0.73 1.08-1.81 1.44-2.71 0.54-2.16 1.99-5.95 4.69-6.31z"/>
			<path class="s0" d="m160.15 129.17c1.44-1.62 2.17-4.69 2.53-5.95 0.18 1.63 1.26 3.07 2.52 3.61 1.81 0.9 4.51 0.36 5.41-1.62 0.9-2.17 0.54-4.87-2.16-4.87-2.71 0-2.71 2.88-1.62 3.6 0.9 0.72 1.98-0.18 2.16-0.9 0.18-0.72-0.18-1.08-0.18-1.08 0.18-0.18 1.08 0 1.08 1.62 0 1.45-1.44 2.71-3.25 2.53-1.8-0.18-3.06-2.17-2.7-3.79 0.18-1.44 1.26-2.34 1.8-2.53q0 0.37 0.18 0.55c0.18 0.54 0.91 0.36 1.09 0.36q0-0.27 0-1.09c0.54 0.18 22.72 0.18 22.72 0 0-0.18 0.36 1.09 0.36 1.27h1.09v-1.45h10.1v0.18h0.54v-0.18c0.18 0 0.72 0 1.08-0.18 0.54-0.36 0.36-1.08 0.36-1.08 0 0 0.18-0.72-0.36-0.9-0.36-0.18-0.9-0.18-1.08-0.18v-0.18h-0.54v0.18h-10.1v-1.44c0 0-1.09-0.18-1.09 0 0 0.18-0.36 1.26-0.36 1.08 0 0-22.18-0.18-22.72 0 0-0.36 0-0.9 0-0.9-0.18-0.18-0.91-0.18-1.09 0.18q0 0.18-0.18 0.72c-0.54-0.36-1.62-1.08-1.8-2.53-0.36-1.62 0.9-3.78 2.7-3.78 1.81-0.19 3.07 0.9 3.25 2.52 0 1.62-0.9 1.62-1.08 1.62 0-0.18 0.36-0.36 0.18-1.08-0.18-0.72-1.26-1.62-2.16-1.08-1.09 0.72-1.09 3.79 1.62 3.61 2.7 0 3.06-2.71 2.16-4.69-0.9-1.99-3.6-2.71-5.41-1.81-1.26 0.72-2.34 1.99-2.52 3.61-0.36-1.26-1.09-4.15-2.53-5.95-1.62-1.99-4.33-1.99-6.13-1.26-1.62 0.54-1.99 1.62-2.53 1.98-0.54 0.54-1.08 0-1.08 0 0 0 0.54-0.18 0.54-0.54 0-0.54-0.72-1.08-1.62-0.54-0.54 0.54-0.72 1.98 0.54 2.52-1.98-0.18-3.79 1.27-3.79 3.61 0.18 2.89 2.89 4.33 5.23 4.15 1.09 0 1.81-0.36 2.35-0.72q0 0.36 0.18 0.72c-0.36-0.18-0.9-0.18-1.08 0-0.36 0.36-1.45 0.54-2.53 0.36-1.98-0.18-2.16-0.9-2.34-0.72-0.18 0.18-0.18 0.9-0.18 0.9 0 0-0.91-0.54-1.09-0.54-0.18 0.18-0.18 0.72-0.18 0.72 0 0-1.26-0.36-1.44 0.36q0.18 0 0.18 0.18 0 0-0.18 0c0.18 0.72 1.44 0.36 1.44 0.36 0 0 0 0.54 0.18 0.72 0.18 0.18 1.09-0.36 1.09-0.36 0 0 0 0.54 0.18 0.72 0.18 0.19 0.36-0.54 2.34-0.72 1.08 0 2.17 0 2.53 0.36 0.18 0.18 0.72 0.18 1.08 0q-0.18 0.36-0.18 0.73c-0.54-0.37-1.26-0.73-2.35-0.73-2.34-0.18-5.05 1.27-5.23 4.33 0 2.17 1.81 3.61 3.79 3.61-1.26 0.36-1.08 1.8-0.54 2.35 0.9 0.72 1.62 0 1.62-0.37 0-0.54-0.54-0.72-0.54-0.72 0 0 0.54-0.54 1.08 0 0.54 0.36 0.91 1.45 2.53 2.17 1.8 0.54 4.51 0.54 6.13-1.45zm-8.12-3.24q-0.18 0.36-0.18 0.54 0 0.72 0 1.26c-0.18-0.36-0.72-0.72-1.44-0.72q1.08-0.27 1.62-1.08zm3.25-3.43c-1.26 0.18-2.16 1.08-2.7 1.98 0.18-0.72 0-1.26-0.55-1.8-1.44-1.44-3.6 0-3.06 0.9 0.36 1.09 1.26 0.9 1.26 0.72 0.18-0.36 0.72-0.54 0.72 0 0.18 0.55-0.36 1.45-1.26 1.63-0.9 0.18-2.53-0.54-2.53-2.35 0-1.8 1.45-3.06 3.79-3.24 2.53-0.18 2.71 1.26 4.33 2.16zm1.26-6.85c0.73 0 0.55-0.73-0.36-0.91 0.72 0 1.45 0.18 1.45-0.18 0 0-0.18-0.54-0.54-0.72 0.9-0.18 1.44-0.72 2.7-0.36 1.62 0.36 1.26 1.99 1.08 2.35-0.18 0.36-0.72 0.18-0.72 0 0.18-0.36-0.36-0.72-0.9-0.72-0.36 0.18-1.08 0.9-0.36 1.62 0.36 0.36 1.08 0.54 1.8 0.36q0 0 0 0.18c0 0.36 0.36 0.54 0.36 0.54h-0.36q-0.18 0-0.54 0c-0.36-0.36-0.54-0.54-0.9-0.36-0.18 0.36-0.9 0.72-0.9 0.72 0 0 0.72 0.36 0.9 0.54 0.18 0.18 0.54 0 0.9-0.18q0.36-0.18 0.54-0.18h0.36c0 0-0.36 0.36-0.36 0.72-0.72-0.18-1.44 0-1.8 0.36-0.72 0.73 0 1.45 0.36 1.63 0.54 0 1.08-0.36 0.9-0.72 0-0.18 0.54-0.36 0.72 0 0.18 0.36 0.54 1.98-1.08 2.34-1.26 0.36-1.8-0.18-2.7-0.36 0.36-0.36 0.36-0.72 0.36-0.72 0.18-0.36-0.55-0.18-1.27-0.18 0.91-0.18 1.09-0.9 0.36-0.9-1.08 0-1.62-0.72-1.44-1.45 0.18-0.72 1.08-0.36 1.08-0.36 0 0-0.18-0.54-0.9-0.54q0 0 0-0.18 0 0.18-0.36 0 0.36 0 0.36 0c0.72 0 0.9-0.54 0.9-0.54 0 0-0.9 0.18-1.08-0.54-0.18-0.72 0.36-1.26 1.44-1.26zm-6.85-5.41c0.9 0.18 1.44 1.08 1.26 1.62 0 0.54-0.54 0.36-0.72 0 0-0.18-0.9-0.36-1.26 0.54-0.54 1.08 1.62 2.52 3.06 1.08 0.37-0.54 0.55-1.08 0.55-1.8 0.54 0.9 1.44 1.62 2.52 1.98-1.44 0.72-1.8 2.35-4.15 2.17-2.34-0.18-3.79-1.63-3.79-3.43 0-1.8 1.63-2.53 2.53-2.35zm2.16-1.62q0 0.36 0 1.26 0 0.18 0.18 0.55-0.81-0.82-1.62-1.09c0.72 0 1.26-0.36 1.44-0.9zm11.37 7.76q-0.18-0.36-0.18-0.36c0 0-0.36 0.18-0.36 0.9 0 0.54 0.18 0.54 0.18 0.54 0 0-0.18 0.36-0.72 0.18-0.37-0.18-0.73-0.36-0.91-0.54q0.18 0 0.36-0.36c0.73-0.9 0.37-2.89-1.08-3.61-1.26-0.72-2.88 0-2.88 0 0 0 0.72-0.54 0.72-1.8 0-0.72-0.9-1.81-1.99-1.27-1.08 0.55-0.54 1.45-0.54 1.45 0 0-0.36 0.18-0.72 0-0.54 0-1.44-0.72-1.26-1.99 0-1.26 0.9-2.7 3.06-2.52 2.71 0.36 3.97 4.15 4.69 6.13 0.37 1.26 1.09 2.53 1.63 3.25zm-6.32 13.34c-2.16 0.37-3.06-1.26-3.06-2.52-0.18-1.26 0.72-1.8 1.26-1.98 0.36-0.18 0.72 0 0.72 0 0 0-0.54 1.08 0.54 1.62 1.09 0.54 1.99-0.54 1.99-1.44 0-1.27-0.72-1.63-0.72-1.63 0 0 1.62 0.72 2.88-0.18 1.45-0.72 1.81-2.7 1.08-3.61q-0.18-0.18-0.36-0.36c0.36-0.18 0.54-0.36 0.91-0.36 0.54-0.18 0.72 0 0.72 0 0 0-0.18 0.18-0.18 0.72 0 0.55 0.18 0.73 0.36 0.91-0.54 0.72-1.27 1.62-1.45 2.7-0.72 1.99-1.98 5.95-4.69 6.13z"/>
		</g>
	</g>
</svg>