<svg version="1.2" xmlns="http://www.w3.org/2000/svg" viewBox="0 0 329 131" width="329" height="131"><defs><clipPath clipPathUnits="userSpaceOnUse" id="cp1"><path d="m0 0h329v131h-329z"/></clipPath></defs><style>.a{fill:#c7a763}.b{fill:#002c4d}</style><g clip-path="url(#cp1)"><path class="a" d="m128.8 117c-0.4 5.9-4 9.3-9.1 11.5-3.3 1.4-6.7 2-10.2 2.3-3.5 0.3-7 0.3-10.5 0-3.8-0.4-7.6-1-11.1-2.6-3.9-1.8-6.9-4.7-9.2-8.2-3.1-4.8-6-9.7-9-14.5-2.6-4.4-5.3-8.8-7.9-13.2-0.1-0.1-0.2-0.3-0.4-0.6v0.8c0 8.8 0 17.6 0 26.5 0 1.3 0.2 2.7 0.4 4 0.6 2.9 2.4 4.5 5.4 4.9 0.7 0.1 1.5 0.2 2.3 0.2v0.9h-39.8v-0.9c0.5 0 1-0.1 1.5-0.2 2.9-0.8 4.6-2.6 4.8-5.6 0.2-3 0.3-5.9 0.3-8.9q0-25 0-50c0-1.8-0.2-3.7-0.6-5.4-0.5-2.7-2.2-4.2-4.8-4.6q-0.2 0-0.3-0.1c0-0.2-0.1-0.5-0.1-0.8h0.8c3.6 0 7.2 0 10.8-0.1 3.4 0 6.7-0.6 9.5-2.6 4.3-3 7.1-7.1 8.2-12.2 2.3-11.1-0.8-20.6-8.8-28.6-3.2-3.1-6.2-4.6-7.1-5.1-2.7-1.4-5.2-2.2-7-2.6-4.1-0.4-10.8-0.7-16.2 1.2-0.6 0.3-1.3 0.5-1.3 0.5-8.7 3.8-14.3 10.4-17.2 19.3-0.6 2-0.9 4-1.3 6 0 0.3 0 0.5 0 0.7 1.1-5.1 3.8-9.2 8-12.2 6.6-4.9 15.5-4 20.8 0 3.9 2.9 6.2 7 7.1 11.8 1.5 9.2-4.5 18.1-13.9 20.4-6.1 1.5-11.7 0.6-16.6-3.4-4-3.2-6.1-7.5-6.3-12.7-0.3-7.9 2.1-15 7-21.3q3.1-4 7.2-6.7c0.6-0.4 3.3-2.2 6.9-3.4 8-2.7 15.5-1.1 18.8-0.2 2.2 1.1 4.5 1.9 6.5 3.2 8 5.2 13 12.5 14.5 21.9q0.5 2.6 0.5 5.3c0 18.9 0 37.9 0 56.9v0.9c1.3-1.5 2.4-2.8 3.5-4.2 4-4.8 7.6-9.7 10.5-15.2 1.4-2.5 2.6-5.1 3-8.1 0.1-1.3 0.1-2.7-0.1-4-0.4-2.3-2.1-3.6-4.3-4.1-1-0.3-2-0.5-3.1-0.7q0-0.3 0-0.7h38.9v0.8c-1.4 0.1-2.7 0.2-3.9 0.4-4.1 0.5-7.8 2.1-11.3 4.2-3.6 2.1-6.8 4.8-9.9 7.6-4.4 4.2-8.7 8.4-12.8 13.1q0.5 0.2 0.9 0.4c5.8 2.5 10.3 6.5 13.3 12 2.3 4.2 4.3 8.6 6.5 12.8 2.2 4.5 4.3 8.9 7 13.1 2.2 3.3 4.7 6.3 8.2 8.4 3.4 2 7 2.8 10.9 1.6 1.6-0.4 2.9-1.2 3.7-2.7q0.2-0.6 0.3-1.2c0.1-0.9-0.2-1.2-1.1-1q-2.3 0.5-4.6-0.3c-3.1-1-4.8-3.7-5-7.2-0.2-4.3 3.4-7.7 7.6-7.8 5.9-0.1 9.6 4.2 9.2 10.3z"/><path class="b" d="m193.4 93.6c0-2 1.3-3.3 3.2-3.3 1.6 0 2.8 0.9 3 2.4h-1.5c-0.2-0.7-0.8-1.1-1.5-1.1-1.1 0-1.7 0.8-1.7 2 0 1.2 0.6 2 1.7 2 0.8 0 1.3-0.4 1.5-1h1.5c-0.2 1.4-1.5 2.3-3.1 2.3-1.9 0-3.1-1.2-3.1-3.3z"/><path class="b" d="m225.2 97c-1.9 0-3.2-1.4-3.2-3.4 0-1.9 1.3-3.3 3.2-3.3 1.8 0 3.1 1.3 3.1 3.3 0 2-1.3 3.4-3.1 3.4zm0-5.4c-1.1 0-1.7 0.8-1.7 2 0 1.2 0.6 2 1.7 2 1 0 1.7-0.8 1.7-2 0-1.2-0.7-2-1.7-2z"/><path class="b" d="m251.2 96.9v-6.5h2.5c1.6 0 2.4 0.8 2.4 2.1q0 1.2-1 1.8l1.1 2.6h-1.5l-1-2.3h-1.1v2.3zm1.4-3.6h1.1c0.6 0 1-0.3 1-0.8 0-0.6-0.4-0.9-1-0.9h-1.1v1.7z"/><path class="b" d="m280.4 94.7v2.1h-1.4v-6.4h2.6c1.4 0 2.2 0.8 2.2 2.1 0 1.3-0.8 2.2-2.2 2.2h-1.2zm0-3.1v1.8h0.9q1.1 0 1.1-0.9 0-0.9-1.1-0.9h-0.9z"/><path class="a" d="m157.6 77.4h-9.5v-1.7h1.4c0.6 0 1.1-0.4 1.1-1.3v-13.5c0-0.9-0.5-1.3-1.1-1.3h-1.4v-1.7h10.1v1.7h-1.4c-0.6 0-1.1 0.4-1.1 1.3v6.1l6.7-5.9c0.8-0.7 0.9-1.5-0.1-1.5h-1.5v-1.7h8.4v1.7h-0.5c-1.4 0-2.2 0.5-4.7 2.6l-1.9 1.9 5 9.4c0.8 1.6 1.5 2.2 2.5 2.2h0.7v1.7h-10.1v-1.7h0.9c0.8 0 1-0.5 0.5-1.5l-3.5-6.8-2.4 2.1v4.9c0 0.9 0.5 1.3 1.1 1.3h0.8v1.7z"/><path class="a" d="m186.4 66.5c1.5 0 2.2-0.6 2.2-1.9v-1h1.6v7.3h-1.6v-1c0-1.3-0.7-1.9-2.2-1.9h-1.8l0.1 6.3c0 1 0.4 1.4 1.7 1.4h1.4c4.1 0 4.9-1.1 5.4-5.5h1.9v7.2h-18v-1.7h1.3c0.7 0 1.1-0.4 1.1-1.3v-13.5c0-0.9-0.4-1.3-1.1-1.3h-1.3v-1.7h18v6.7h-1.9c-0.5-4.3-1.3-5-5.4-5h-3.2v6.9h1.8z"/><path class="a" d="m218.2 77.4h-10.6v-1.7h1.7c0.6 0 1.1-0.4 1.1-1.3v-5.4l-4.9-8c-0.7-1-1.1-1.4-2.2-1.4h-0.6v-1.7h10.3v1.7h-0.9c-1.1 0-1.3 0.6-0.6 1.6l3.2 5 3.1-5c0.7-1.2 0.4-1.6-0.6-1.6h-1v-1.7h6.8v1.7h-0.7c-0.9 0-1.5 0.4-2.2 1.5l-4.6 7.4v5.9c0 0.9 0.4 1.3 1 1.3h1.7v1.7z"/><path class="a" d="m229.8 59.9c0-1.4 1-2.2 2.4-2.2 1.9 0 3.1 1.4 3.1 3.3 0 3-2.4 4.9-5.5 5.2v-1.7c2-0.2 3-1.1 3.4-2.2-2.1 0.1-3.4-1-3.4-2.4z"/><path class="b" d="m243.1 76.4h1.6c0.5 0 0.8-0.2 0.8-1v-15.5c0-0.7-0.3-1-0.8-1h-1.6v-1h7.9v1h-2.1c-0.5 0-0.8 0.3-0.8 1v15.2c0 1.1 0.1 1.3 3.5 1.3 5.4 0 5.6-0.4 5.9-6.4h1.1v7.4h-15.5v-1z"/><path class="b" d="m273.8 57.9v1h-1.6c-0.5 0-0.8 0.3-0.8 1v15.5c0 0.7 0.3 1 0.8 1h1.6v1h-7.4v-1h1.6c0.5 0 0.8-0.3 0.8-1v-15.5c0-0.7-0.3-1-0.8-1h-1.6v-1z"/><path class="b" d="m299 77.4h-1.9l-11.7-16.8v14.8c0 0.8 0.3 1 0.8 1h1.8v1h-6.2v-1h1.7c0.4 0 0.8-0.2 0.8-1v-15.5c0-0.7-0.4-1-0.8-1h-1.7v-1h4.8l11.3 16.1v-14.1c0-0.7-0.3-1-0.8-1h-1.8v-1h6.2v1h-1.6c-0.5 0-0.9 0.3-0.9 1v17.5z"/><path class="b" d="m316.7 77.4h-7.4v-1h1.6c0.5 0 0.8-0.2 0.8-1v-15.5c0-0.7-0.3-1-0.8-1h-1.6v-1h7.6v1h-1.8c-0.5 0-0.8 0.3-0.8 1v8.5l7.9-7.9c1-1 1-1.6-0.1-1.6h-1.6v-1h7.6v1h-0.6c-1.7 0-2.4 0.4-4.6 2.5l-3.5 3.5 6 9.3c1.1 1.7 1.7 2.2 2.8 2.2h0.7v1h-7.9v-1h1.3c0.9 0 1.3-0.3 0.6-1.5l-5.5-8.2-3.1 3.1v5.6c0 0.8 0.3 1 0.8 1h1.6v1z"/><path class="a" d="m320.6 87.5c-0.7 1-1.1 2.7-1.3 3.4-0.1-1-0.8-1.7-1.5-2.1-0.9-0.5-2.5-0.1-3 1-0.4 1.1-0.2 2.7 1.3 2.7 1.5 0 1.5-1.6 0.9-2-0.6-0.4-1.2 0.1-1.3 0.5 0 0.4 0.1 0.5 0.1 0.6 0 0.1-0.6 0-0.5-0.9 0-0.9 0.8-1.5 1.8-1.4 1 0 1.7 1.2 1.5 2.1-0.2 0.8-0.8 1.3-1.1 1.4q0-0.3 0-0.4c-0.1-0.2-0.6-0.2-0.6-0.1-0.1 0-0.1 0.3-0.1 0.5-0.2 0-12.5 0-12.6 0 0 0.1-0.1-0.5-0.1-0.6 0-0.1-0.7-0.1-0.7 0v0.8h-5.5v-0.1h-0.3v0.1c-0.1 0-0.5-0.1-0.7 0.1-0.2 0.1-0.2 0.5-0.2 0.5 0 0 0 0.4 0.2 0.6 0.2 0.1 0.6 0.1 0.7 0.1v0.1h0.3v-0.1h5.5v0.7c0 0.1 0.7 0.1 0.7 0 0 0 0.1-0.7 0.1-0.6 0 0.1 12.4 0.1 12.6 0 0 0.3 0 0.5 0.1 0.6 0 0 0.5 0.1 0.6-0.2q0-0.1 0-0.3c0.3 0.1 0.9 0.6 1.1 1.4 0.2 0.9-0.5 2-1.5 2.1-1 0.1-1.8-0.6-1.8-1.4-0.1-0.9 0.5-1 0.5-0.9 0 0.1-0.1 0.2-0.1 0.6 0.1 0.4 0.7 0.9 1.3 0.5 0.6-0.4 0.6-2-0.9-2-1.5 0-1.7 1.6-1.3 2.7 0.5 1.1 2.1 1.5 3 1 0.7-0.4 1.4-1.1 1.5-2.1 0.2 0.7 0.6 2.4 1.3 3.4 0.9 1.1 2.4 1.1 3.4 0.7 1-0.3 1.2-0.9 1.5-1.2 0.3-0.2 0.5 0.1 0.5 0.1 0 0-0.2 0.1-0.2 0.3 0 0.2 0.4 0.6 0.8 0.3 0.4-0.3 0.4-1.2-0.2-1.4 1 0.1 2.1-0.7 2-2-0.1-1.6-1.5-2.5-2.9-2.4-0.6 0.1-1 0.3-1.3 0.5q0-0.3 0-0.5 0 0 0 0c0.2 0.2 0.4 0.2 0.6 0.1 0.1-0.2 0.7-0.3 1.4-0.2 1 0.1 1.2 0.5 1.3 0.4 0.1-0.2 0.1-0.5 0.1-0.5 0 0 0.5 0.3 0.6 0.2 0.1 0 0-0.3 0-0.3 0 0 0.7 0.2 0.8-0.3q0 0 0 0 0 0 0 0c-0.1-0.5-0.8-0.2-0.8-0.2 0 0 0.1-0.4 0-0.4-0.1-0.1-0.6 0.2-0.6 0.2 0 0 0-0.3-0.1-0.4-0.1-0.2-0.3 0.2-1.3 0.3-0.7 0.1-1.3 0-1.4-0.1-0.2-0.2-0.4-0.2-0.6 0q0 0 0 0 0-0.2 0-0.4c0.3 0.2 0.7 0.3 1.3 0.4 1.4 0.1 2.8-0.8 2.9-2.4 0.1-1.3-1-2.1-2-2 0.6-0.2 0.6-1 0.2-1.3-0.4-0.4-0.9 0-0.8 0.2 0 0.2 0.2 0.4 0.2 0.4 0 0-0.2 0.2-0.5 0-0.3-0.2-0.5-0.8-1.5-1.2-1-0.3-2.5-0.3-3.4 0.8zm4.6 1.7q0-0.1 0-0.2 0.1-0.5 0-0.8c0.2 0.3 0.4 0.5 0.9 0.5-0.4 0.1-0.7 0.3-0.9 0.6zm-1.8 1.9c0.6-0.2 1.1-0.6 1.4-1.1 0 0.3 0.1 0.7 0.4 1 0.7 0.8 1.9 0 1.7-0.6-0.2-0.5-0.7-0.4-0.8-0.3-0.1 0.1-0.4 0.3-0.4 0 0-0.3 0.2-0.9 0.8-1 0.5-0.1 1.3 0.3 1.3 1.3 0 1-0.7 1.8-2.1 1.9-1.3 0.1-1.4-0.8-2.3-1.2zm-0.7 3.7c-0.4 0-0.4 0.4 0.1 0.6-0.4 0-0.7-0.1-0.7 0.1 0 0 0.1 0.2 0.3 0.4-0.6 0.1-0.9 0.3-1.5 0.2-1-0.2-0.8-1.2-0.7-1.3 0.1-0.2 0.4-0.2 0.4 0 0 0.1 0.3 0.4 0.5 0.3 0.2 0 0.6-0.4 0.3-0.8-0.3-0.2-0.7-0.3-1-0.2q0-0.1 0-0.1c-0.1-0.2-0.2-0.3-0.2-0.3l0.1-0.1q0.1 0 0.3 0.1c0.3 0.1 0.4 0.2 0.5 0.1 0.2-0.1 0.5-0.3 0.5-0.3 0 0-0.3-0.2-0.5-0.3-0.1-0.1-0.2 0-0.5 0.1q-0.2 0.1-0.3 0.1h-0.1c0 0 0.2-0.2 0.2-0.4q0 0 0 0c0.3 0.1 0.7 0 1-0.3 0.3-0.3 0-0.8-0.3-0.8-0.2-0.1-0.5 0.2-0.5 0.4 0 0.1-0.2 0.2-0.3 0-0.2-0.2-0.4-1.1 0.6-1.3 0.6-0.2 0.9 0.1 1.5 0.2-0.2 0.1-0.3 0.4-0.3 0.4 0 0.2 0.3 0.1 0.7 0.1-0.5 0.1-0.5 0.5-0.1 0.5 0.5 0 0.8 0.3 0.8 0.7-0.1 0.4-0.6 0.3-0.6 0.3 0 0 0.1 0.3 0.4 0.3q0.1 0 0.1 0-0.1 0-0.1 0 0 0 0.2 0-0.2 0-0.2 0 0 0 0.1 0.1 0 0-0.1 0c-0.3 0-0.4 0.3-0.4 0.3 0 0 0.5-0.2 0.6 0.2 0 0.4-0.3 0.8-0.8 0.8zm3.8 3c-0.6-0.1-0.8-0.6-0.8-0.9 0.1-0.3 0.3-0.2 0.4 0 0.1 0.1 0.6 0.2 0.8-0.4 0.2-0.5-0.9-1.3-1.7-0.5-0.3 0.2-0.4 0.6-0.4 1-0.3-0.5-0.8-1-1.4-1.1 0.9-0.5 1-1.3 2.3-1.2 1.4 0.1 2.1 0.8 2.1 1.8 0 1-0.8 1.4-1.3 1.3zm-1.3 1q0.1-0.3 0-0.7 0-0.1 0-0.3c0.2 0.3 0.5 0.5 0.9 0.6-0.5 0-0.7 0.2-0.8 0.4zm-6.4-4.2q0 0 0 0 0.1 0.2 0.1 0.2c0 0 0.3-0.2 0.2-0.5 0-0.3 0-0.4 0-0.4 0 0 0.1-0.1 0.4 0 0.1 0 0.3 0.1 0.4 0.2q-0.1 0.1-0.2 0.2c-0.4 0.6-0.1 1.7 0.6 2.1 0.7 0.4 1.6 0 1.6 0 0 0-0.4 0.3-0.3 1 0 0.4 0.5 1 1.1 0.7 0.5-0.3 0.3-0.9 0.3-0.9 0 0 0.1-0.1 0.4 0 0.3 0.1 0.7 0.5 0.7 1.1 0 0.7-0.5 1.6-1.7 1.5-1.5-0.2-2.3-2.3-2.6-3.5-0.2-0.7-0.7-1.3-1-1.7zm3.6-7.5c1.2-0.1 1.7 0.8 1.7 1.5 0 0.6-0.5 1-0.7 1.1-0.3 0.1-0.5 0-0.5 0 0 0 0.3-0.6-0.2-0.9-0.6-0.3-1.1 0.3-1.1 0.7-0.1 0.7 0.3 1 0.3 1 0 0-0.9-0.4-1.6 0-0.7 0.4-1 1.5-0.6 2.1q0.1 0.1 0.2 0.1c-0.1 0.1-0.3 0.2-0.4 0.3-0.3 0.1-0.4-0.1-0.4-0.1 0 0 0 0 0-0.3 0-0.3-0.1-0.5-0.1-0.5 0.2-0.4 0.6-1 0.8-1.5 0.3-1.2 1.1-3.3 2.6-3.5z"/><path class="a" d="m156.5 99.8c0.8-0.9 1.2-2.6 1.4-3.3 0.1 0.9 0.7 1.7 1.4 2 1 0.5 2.5 0.2 3-0.9 0.5-1.2 0.3-2.7-1.2-2.7-1.5 0-1.5 1.6-0.9 2 0.5 0.4 1.1-0.1 1.2-0.5 0.1-0.4-0.1-0.6-0.1-0.6 0.1-0.1 0.6 0 0.6 0.9 0 0.8-0.8 1.5-1.8 1.4-1-0.1-1.7-1.2-1.5-2.1 0.1-0.8 0.7-1.3 1-1.4q0 0.2 0.1 0.3c0.1 0.3 0.5 0.2 0.6 0.2 0-0.1 0-0.3 0-0.6 0.3 0.1 12.6 0.1 12.6 0 0-0.1 0.2 0.6 0.2 0.7 0 0 0.6 0 0.6 0v-0.8h5.6v0.1h0.3v-0.1c0.1 0 0.4 0 0.6-0.1 0.3-0.2 0.2-0.6 0.2-0.6 0 0 0.1-0.4-0.2-0.5-0.2-0.1-0.5-0.1-0.6-0.1v-0.1h-0.3v0.1h-5.6v-0.8c0 0-0.6-0.1-0.6 0 0 0.1-0.2 0.7-0.2 0.6 0 0-12.3-0.1-12.6 0 0-0.2 0-0.5 0-0.5-0.1-0.1-0.5-0.1-0.6 0.1q0 0.1-0.1 0.4c-0.3-0.2-0.9-0.6-1-1.4-0.2-0.9 0.5-2.1 1.5-2.1 1-0.1 1.7 0.5 1.8 1.4 0 0.9-0.5 0.9-0.6 0.9 0-0.1 0.2-0.2 0.1-0.6-0.1-0.4-0.7-0.9-1.2-0.6-0.6 0.4-0.6 2.1 0.9 2 1.5 0 1.7-1.5 1.2-2.6-0.5-1.1-2-1.5-3-1-0.7 0.4-1.3 1.1-1.4 2-0.2-0.7-0.6-2.3-1.4-3.3-0.9-1.1-2.4-1.1-3.4-0.7-0.9 0.3-1.1 0.9-1.4 1.1-0.3 0.3-0.6 0-0.6 0 0 0 0.3-0.1 0.3-0.3 0-0.3-0.4-0.6-0.9-0.3-0.3 0.3-0.4 1.1 0.3 1.4-1.1-0.1-2.1 0.7-2.1 2 0.1 1.6 1.6 2.4 2.9 2.3 0.6 0 1-0.2 1.3-0.4q0 0.2 0.1 0.4 0 0 0 0c-0.2-0.1-0.5-0.1-0.6 0-0.2 0.2-0.8 0.3-1.4 0.2-1.1-0.1-1.2-0.5-1.3-0.4-0.1 0.1-0.1 0.5-0.1 0.5 0 0-0.5-0.3-0.6-0.3-0.1 0.1-0.1 0.4-0.1 0.4 0 0-0.7-0.2-0.8 0.2q0.1 0 0.1 0.1 0 0-0.1 0c0.1 0.4 0.8 0.2 0.8 0.2 0 0 0 0.3 0.1 0.4 0.1 0.1 0.6-0.2 0.6-0.2 0 0 0 0.3 0.1 0.4 0.1 0.1 0.2-0.3 1.3-0.4 0.6 0 1.2 0 1.4 0.2 0.1 0.1 0.4 0.1 0.6 0q0 0 0 0-0.1 0.2-0.1 0.4c-0.3-0.2-0.7-0.4-1.3-0.4-1.3-0.1-2.8 0.7-2.9 2.4 0 1.2 1 2 2.1 2-0.7 0.2-0.6 1-0.3 1.3 0.5 0.4 0.9 0 0.9-0.2 0-0.3-0.3-0.4-0.3-0.4 0 0 0.3-0.3 0.6 0 0.3 0.2 0.5 0.8 1.4 1.2 1 0.3 2.5 0.3 3.4-0.8zm-4.5-1.8q-0.1 0.2-0.1 0.3 0 0.4 0 0.7c-0.1-0.2-0.4-0.4-0.8-0.4 0.4-0.1 0.7-0.3 0.9-0.6zm1.8-1.9c-0.7 0.1-1.2 0.6-1.5 1.1 0.1-0.4 0-0.7-0.3-1-0.8-0.8-2 0-1.7 0.5 0.2 0.6 0.7 0.5 0.7 0.4 0.1-0.2 0.4-0.3 0.4 0 0.1 0.3-0.2 0.8-0.7 0.9-0.5 0.1-1.4-0.3-1.4-1.3 0-1 0.8-1.7 2.1-1.8 1.4-0.1 1.5 0.7 2.4 1.2zm0.7-3.8c0.4 0 0.3-0.4-0.2-0.5 0.4 0 0.8 0.1 0.8-0.1 0 0-0.1-0.3-0.3-0.4 0.5-0.1 0.8-0.4 1.5-0.2 0.9 0.2 0.7 1.1 0.6 1.3-0.1 0.2-0.4 0.1-0.4 0 0.1-0.2-0.2-0.4-0.5-0.4-0.2 0.1-0.6 0.5-0.2 0.9 0.2 0.2 0.6 0.3 1 0.2q0 0 0 0.1c0 0.2 0.2 0.3 0.2 0.3h-0.2q-0.1 0-0.3 0c-0.2-0.2-0.3-0.3-0.5-0.2-0.1 0.2-0.5 0.4-0.5 0.4 0 0 0.4 0.2 0.5 0.3 0.1 0.1 0.3 0 0.5-0.1q0.2-0.1 0.3-0.1h0.2c0 0-0.2 0.2-0.2 0.4q0 0 0 0c-0.4-0.1-0.8 0-1 0.2-0.4 0.4 0 0.8 0.2 0.9 0.3 0 0.6-0.2 0.5-0.4 0-0.1 0.3-0.2 0.4 0 0.1 0.2 0.3 1.1-0.6 1.3-0.7 0.2-1-0.1-1.5-0.2 0.2-0.2 0.2-0.4 0.2-0.4 0.1-0.2-0.3-0.1-0.7-0.1 0.5-0.1 0.6-0.5 0.2-0.5-0.6 0-0.9-0.4-0.8-0.8 0.1-0.4 0.6-0.2 0.6-0.2 0 0-0.1-0.3-0.5-0.3q0 0 0 0 0 0 0-0.1 0 0.1-0.2 0 0.2 0 0.2 0 0 0 0 0 0 0 0 0c0.4 0 0.5-0.3 0.5-0.3 0 0-0.5 0.1-0.6-0.3-0.1-0.4 0.2-0.7 0.8-0.7zm-3.8-3c0.5 0.1 0.8 0.6 0.7 0.9 0 0.3-0.3 0.2-0.4 0 0-0.1-0.5-0.2-0.7 0.3-0.3 0.6 0.9 1.4 1.7 0.6 0.2-0.3 0.3-0.6 0.3-1 0.3 0.5 0.8 0.9 1.4 1.1-0.8 0.4-1 1.3-2.3 1.2-1.3-0.1-2.1-0.9-2.1-1.9 0-1 0.9-1.4 1.4-1.3zm1.2-0.9q0 0.2 0 0.7 0 0.1 0.1 0.3c-0.3-0.3-0.6-0.5-0.9-0.6 0.4 0 0.7-0.2 0.8-0.5zm6.3 4.3q0 0 0 0-0.1-0.2-0.1-0.2c0 0-0.2 0.1-0.2 0.5 0 0.3 0.1 0.3 0.1 0.3 0 0-0.1 0.2-0.4 0.1-0.2-0.1-0.4-0.2-0.5-0.3q0.1 0 0.2-0.2c0.4-0.5 0.2-1.6-0.6-2-0.7-0.4-1.6 0-1.6 0 0 0 0.4-0.3 0.4-1 0-0.4-0.5-1-1.1-0.7-0.6 0.3-0.3 0.8-0.3 0.8 0 0-0.2 0.1-0.4 0-0.3 0-0.8-0.4-0.7-1.1 0-0.7 0.5-1.5 1.7-1.4 1.5 0.2 2.2 2.3 2.6 3.4 0.2 0.7 0.6 1.4 0.9 1.8zm-3.5 7.4c-1.2 0.2-1.7-0.7-1.7-1.4-0.1-0.7 0.4-1 0.7-1.1 0.2-0.1 0.4 0 0.4 0 0 0-0.3 0.6 0.3 0.9 0.6 0.3 1.1-0.3 1.1-0.8 0-0.7-0.4-0.9-0.4-0.9 0 0 0.9 0.4 1.6-0.1 0.8-0.4 1-1.5 0.6-2q-0.1-0.1-0.2-0.2c0.2-0.1 0.3-0.2 0.5-0.2 0.3-0.1 0.4 0 0.4 0 0 0-0.1 0.1-0.1 0.4 0 0.3 0.1 0.4 0.2 0.5-0.3 0.4-0.7 0.9-0.8 1.5-0.4 1.1-1.1 3.3-2.6 3.4z"/><path class="a" d="m327.8 109.8h-178.4c-0.6 0-1.1 0.5-1.1 1.1v17c0 0.6 0.5 1.2 1.1 1.2h178.4c0.6 0 1.2-0.6 1.2-1.2v-17c0-0.6-0.6-1.1-1.2-1.1z"/><path class="b" d="m165.4 115.6h3.8c2 0 2.9 0.7 2.9 1.9 0 0.7-0.5 1.3-1.5 1.6 1.2 0.2 1.9 0.8 1.9 1.8 0 1.3-1 2.2-3.3 2.2h-3.8v-0.5h0.6c0.2 0 0.4-0.1 0.4-0.5v-5.6c0-0.3-0.2-0.4-0.4-0.4h-0.6v-0.5zm2.4 0.5v2.8h1.1c1.3 0 1.8-0.6 1.8-1.3 0-1-0.5-1.5-1.9-1.5zm1.3 3.3h-1.3v2.8q0 0.4 0.4 0.4h1.1c1.3 0 1.7-0.7 1.7-1.6 0-1-0.5-1.6-1.9-1.6z"/><path class="b" d="m176.6 123.1h-3.2v-0.5h0.5q0.3 0 0.3-0.3v-3.8q0-0.3-0.3-0.3h-0.5v-0.5h2.2v1.1c0.5-0.8 1.1-1.2 1.7-1.2 0.7 0 1 0.4 1 0.9 0 0.5-0.3 0.8-0.7 0.8-0.3 0-0.6-0.2-0.6-0.6q0-0.2 0.1-0.3 0-0.1-0.1 0c-0.6 0-1.1 0.5-1.4 1.3v2.6q0 0.3 0.3 0.3h0.7v0.5z"/><path class="b" d="m181.2 122.3q0 0.3 0.3 0.3h0.5v0.5h-3.1v-0.5h0.6q0.3 0 0.3-0.3v-3.8q0-0.3-0.3-0.3h-0.6v-0.5h2.3zm-1.6-6.2c0-0.5 0.3-0.8 0.8-0.8 0.5 0 0.8 0.3 0.8 0.8 0 0.5-0.3 0.8-0.8 0.8-0.5 0-0.8-0.3-0.8-0.8z"/><path class="b" d="m187 122.2c-0.4 0.6-1 1-1.8 1-1.3 0-2.4-1-2.4-2.8 0-1.8 1.1-2.8 2.4-2.8 0.7 0 1.3 0.3 1.7 0.9v-2.3q0-0.3-0.3-0.3h-0.5v-0.5h2.2v6.9q0 0.3 0.3 0.3h0.5v0.5h-2v-0.9h-0.1zm-1.4-4q-1.4 0-1.4 2.2c0 1.5 0.5 2.2 1.4 2.2q1.3 0 1.3-2.1c0-1.5-0.4-2.3-1.3-2.3z"/><path class="b" d="m192.7 125.3c-1.8 0-2.8-0.3-2.8-1.2q0-0.7 1-1c-0.7-0.1-1-0.5-1.1-0.9q0-0.2 0-0.4c0.1-0.4 0.5-0.7 1.1-0.9-0.4-0.3-0.7-0.7-0.8-1.3q0-0.1 0.1-0.3c0.1-1 1.1-1.7 2.4-1.7q0.3 0 0.6 0.1c0.3-0.8 0.9-1.3 1.7-1.3 0.7 0 1 0.3 1 0.8 0 0.4-0.3 0.6-0.6 0.6-0.3 0-0.5-0.1-0.6-0.4q0-0.1 0-0.2 0.1-0.1 0.2-0.2-0.1-0.1-0.3-0.1c-0.4 0.1-0.7 0.4-0.9 0.9 0.7 0.3 1.3 0.8 1.3 1.5q0 0.1 0 0.3c0 1.1-1 1.8-2.4 1.8q-0.6 0-1.1-0.2c-0.6 0-0.8 0.2-0.8 0.5 0 0.3 0.3 0.4 1.2 0.4h1.7c1.5 0.1 2.1 0.6 2.1 1.5 0 1-0.9 1.7-3 1.7zm1.9-1.3c0-0.6-0.4-0.8-1.9-0.8-1.5 0-1.9 0.3-1.9 0.8 0 0.6 0.5 0.9 1.9 0.9 1.4 0 1.9-0.4 1.9-0.9zm-2-3.1q1.1 0 1.1-1.4c0-1-0.3-1.4-1.1-1.4-0.7 0-1.1 0.4-1.1 1.4q0 1.4 1.1 1.4z"/><path class="b" d="m198.5 122.3q0 0.3 0.3 0.3h0.5v0.5h-3.1v-0.5h0.6q0.3 0 0.3-0.3v-3.8q0-0.3-0.3-0.3h-0.6v-0.5h2.3zm-1.6-6.2c0-0.5 0.3-0.8 0.8-0.8 0.5 0 0.8 0.3 0.8 0.8 0 0.5-0.3 0.8-0.8 0.8-0.5 0-0.8-0.3-0.8-0.8z"/><path class="b" d="m202.7 123.1h-2.8v-0.5h0.5q0.3 0 0.3-0.3v-3.8q0-0.3-0.3-0.3h-0.5v-0.5h2.1v1h0.1c0.5-0.6 1.1-1.1 2-1.1 1.2 0 1.8 0.6 1.8 1.8v2.9q0 0.3 0.3 0.3h0.5v0.5h-2.9v-0.5h0.4q0.3 0 0.3-0.3v-3c0-0.6-0.3-1-0.9-1-0.7 0-1.2 0.5-1.5 1.2v2.8q0 0.3 0.3 0.3h0.3v0.5z"/><path class="b" d="m210.2 125.3c-1.8 0-2.8-0.3-2.8-1.2q0-0.7 1-1c-0.7-0.1-1-0.5-1.1-0.9q0-0.2 0-0.4c0.1-0.4 0.5-0.7 1.1-0.9-0.4-0.3-0.7-0.7-0.8-1.3q0-0.1 0.1-0.3c0.1-1 1.1-1.7 2.4-1.7q0.3 0 0.6 0.1c0.3-0.8 0.9-1.3 1.7-1.3 0.7 0 1 0.3 1 0.8 0 0.4-0.3 0.6-0.6 0.6-0.3 0-0.5-0.1-0.6-0.4q0-0.1 0-0.2 0.1-0.1 0.2-0.2-0.2-0.1-0.3-0.1c-0.4 0.1-0.7 0.4-0.9 0.9 0.7 0.3 1.2 0.8 1.3 1.5q0 0.1 0 0.3c0 1.1-1.1 1.8-2.4 1.8q-0.6 0-1.1-0.2c-0.6 0-0.8 0.2-0.8 0.5 0 0.3 0.3 0.4 1.2 0.4h1.7c1.5 0.1 2.1 0.6 2.1 1.5 0 1-0.9 1.7-3 1.7zm1.9-1.3c0-0.6-0.4-0.8-1.9-0.8-1.5 0-1.9 0.3-1.9 0.8 0 0.6 0.5 0.9 1.9 0.9 1.4 0 1.9-0.4 1.9-0.9zm-2-3.1q1.1 0 1.1-1.4c0-1-0.3-1.4-1.1-1.4-0.7 0-1.1 0.4-1.1 1.4q0 1.4 1.1 1.4z"/><path class="b" d="m220.1 123.1h-1.4l-2.1-6.4c-0.1-0.4-0.3-0.6-0.5-0.6h-0.5v-0.5h3.3v0.5h-0.6c-0.2 0-0.3 0.2-0.2 0.5l1.8 5.5 1.8-5.5c0.1-0.4 0-0.5-0.2-0.5h-0.6v-0.5h2.4v0.5h-0.5c-0.2 0-0.3 0.1-0.4 0.5z"/><path class="b" d="m225.9 122.3q0 0.3 0.3 0.3h0.5v0.5h-3v-0.5h0.5q0.3 0 0.3-0.3v-3.8q0-0.3-0.3-0.3h-0.5v-0.5h2.2zm-1.6-6.2c0-0.5 0.4-0.8 0.9-0.8 0.5 0 0.8 0.3 0.8 0.8 0 0.5-0.3 0.8-0.8 0.8-0.5 0-0.9-0.3-0.9-0.8z"/><path class="b" d="m230.2 123.2c-0.8 0-1.4-0.3-2-0.8l-0.1 0.7h-0.5v-1.8h0.6c0.3 0.8 0.9 1.4 1.9 1.4 0.6 0 1.1-0.3 1.1-0.8 0-1.5-3.6-0.6-3.6-2.7 0-1 0.8-1.6 2-1.6q1.1 0 1.8 0.7l0.1-0.6h0.5v1.6h-0.6c-0.2-0.7-0.9-1.2-1.8-1.2-0.6 0-0.9 0.3-0.9 0.7 0 1.2 3.6 0.4 3.6 2.6 0 1.2-0.9 1.8-2.1 1.8z"/><path class="b" d="m235.3 122.3q0 0.3 0.3 0.3h0.6v0.5h-3.1v-0.5h0.5q0.3 0 0.3-0.3v-3.8q0-0.3-0.3-0.3h-0.5v-0.5h2.2zm-1.6-6.2c0-0.5 0.4-0.8 0.9-0.8 0.5 0 0.8 0.3 0.8 0.8 0 0.5-0.3 0.8-0.8 0.8-0.5 0-0.9-0.3-0.9-0.8z"/><path class="b" d="m239.7 123.2c-1.6 0-2.8-1-2.8-2.8 0-1.8 1.2-2.8 2.8-2.8 1.6 0 2.8 1 2.8 2.8 0 1.8-1.2 2.8-2.8 2.8zm0-0.5q1.3 0 1.3-2.3 0-2.4-1.3-2.4-1.3 0.1-1.3 2.4c0 1.5 0.4 2.3 1.3 2.3z"/><path class="b" d="m246 123.1h-2.8v-0.5h0.5q0.3 0 0.3-0.3v-3.8q0-0.3-0.3-0.3h-0.5v-0.5h2.1v1h0.1c0.5-0.6 1.2-1.1 2-1.1 1.2 0 1.8 0.6 1.8 1.8v2.9q0 0.3 0.3 0.3h0.5v0.5h-2.9v-0.5h0.4q0.3 0 0.3-0.3v-3c0-0.6-0.3-1-0.9-1-0.6 0-1.2 0.5-1.5 1.2v2.8q0 0.3 0.3 0.3h0.3v0.5z"/><path class="b" d="m253.4 123.2c-0.8 0-1.4-0.3-1.9-0.8l-0.1 0.7h-0.6v-1.8h0.6c0.3 0.8 0.9 1.4 1.9 1.4 0.6 0 1.1-0.3 1.1-0.8 0-1.5-3.6-0.6-3.6-2.7 0-1 0.8-1.6 2-1.6q1.1 0 1.8 0.7l0.1-0.6h0.5v1.6h-0.5c-0.3-0.7-1-1.2-1.9-1.2-0.6 0-0.9 0.3-0.9 0.7 0 1.2 3.6 0.4 3.6 2.6 0 1.2-0.9 1.8-2.1 1.8z"/><path class="b" d="m260.2 123.2c-0.9 0-1.4-0.4-1.2-1.5l0.7-3.6h-0.8l0.1-0.3h0.4c0.4 0 0.7-0.2 0.9-0.9l0.2-0.5h0.6l-0.3 1.4h1.7v0.3h-1.8l-0.8 3.8c-0.1 0.6 0.1 0.9 0.5 0.9 0.5 0 0.8-0.3 0.9-0.9l0.1-0.5h0.4l-0.2 0.6c-0.1 0.8-0.6 1.2-1.4 1.2z"/><path class="b" d="m265.4 123.2c-1.4 0-2.4-0.9-2.4-2.3 0-1.9 1.4-3.2 3.1-3.2 1.4 0 2.4 0.8 2.4 2.3 0 1.8-1.4 3.2-3.1 3.2zm-1.4-2.1c0 1.1 0.5 1.7 1.3 1.7 1.4 0 2.2-1.4 2.2-3 0-1.2-0.5-1.8-1.4-1.8-1.3 0-2.1 1.4-2.1 3.1z"/><path class="b" d="m271.7 115.6h3.6c2.1 0 3.1 0.7 3.1 2 0 0.9-0.5 1.5-1.6 1.8 0.9 0.2 1.5 0.8 1.5 1.7v0.8c0 0.5 0.1 0.6 0.3 0.6 0.2 0 0.3-0.1 0.3-0.5v-0.6h0.6v0.6c0 0.8-0.4 1.2-1.3 1.2-0.9 0-1.4-0.3-1.4-1.3v-0.7c0-1.1-0.5-1.5-1.7-1.5h-1.1v2.4c0 0.3 0.2 0.5 0.4 0.5h0.5v0.5h-3.2v-0.5h0.5c0.3 0 0.4-0.2 0.4-0.5v-5.6c0-0.3-0.1-0.4-0.4-0.4h-0.5v-0.5zm2.3 0.5v3.1h0.9c1.5 0 2-0.6 2-1.5 0-1-0.4-1.6-2.1-1.6z"/><path class="b" d="m283.1 123.2c-1.6 0-2.8-1-2.8-2.8 0-1.8 1.2-2.8 2.7-2.8 1.5 0 2.6 0.9 2.6 2.8h-3.9q0 0.1 0 0.3c0.1 1.3 0.6 2 1.6 2q0.1 0 0.2-0.1 1.2 0 1.5-1.3h0.5c-0.2 1.2-1.1 1.9-2.4 1.9zm-1.4-3.3h2.6q-0.1-1.9-1.3-1.9-1.2 0.1-1.3 1.9z"/><path class="b" d="m291.6 123.2q-0.3 0-0.6-0.1c-0.5-0.1-0.8-0.3-1-0.8-0.4 0.5-0.9 0.8-1.6 0.9q-0.3 0-0.5 0c-0.9-0.1-1.4-0.6-1.4-1.3 0-0.7 0.2-1.1 1.1-1.4q0.2-0.1 0.3-0.1c1.9-0.6 2-0.7 2-1.1v-0.1c0-0.6-0.4-1.1-1.3-1.1q0 0-0.1 0c-0.5 0-0.8 0.2-1 0.4q0.1 0 0.2 0c0.2 0.1 0.3 0.3 0.3 0.5 0 0.5-0.3 0.7-0.6 0.7q-0.2-0.1-0.3-0.1c-0.3-0.1-0.4-0.3-0.4-0.6q0-0.1 0-0.1c0-0.6 0.8-1.3 2.3-1.3 1.5 0 2.3 0.5 2.3 1.9q0 0.1 0 0.2v2.4c0 0.4 0.2 0.5 0.4 0.5q0 0 0 0 0.3 0 0.3-0.4 0-0.1 0-0.2v-0.3h0.5v0.3c0 0.7-0.3 1.1-0.9 1.1zm-1.7-1.4q0-0.2 0-0.4v-1.2c-1 0.5-2 0.6-2 1.5 0 0.6 0.3 0.9 0.8 0.9 0.6 0 1.1-0.3 1.2-0.8z"/><path class="b" d="m295.2 122.3q0 0.3 0.2 0.3h0.6v0.5h-3.1v-0.5h0.6q0.3 0 0.3-0.3v-6.1q0-0.3-0.3-0.3h-0.6v-0.5h2.3v6.9z"/><path class="b" d="m298.8 122.3q0 0.3 0.2 0.3h0.6v0.5h-3.1v-0.5h0.6q0.3 0 0.3-0.3v-3.8q0-0.3-0.3-0.3h-0.6v-0.5h2.3zm-1.6-6.2c0-0.5 0.3-0.8 0.8-0.8 0.5 0 0.8 0.3 0.8 0.8 0 0.5-0.3 0.8-0.8 0.8-0.5 0-0.8-0.3-0.8-0.8z"/><path class="b" d="m302.4 123.2c-1 0-1.6-0.5-1.6-1.7v-3.3h-0.8v-0.5h0.4c0.5 0 0.8-0.2 0.9-0.9l0.2-0.6h0.7v1.5h1.7v0.5h-1.7v3.6c0 0.6 0.2 0.8 0.6 0.8 0.4 0 0.6-0.2 0.6-0.8v-0.5h0.4v0.5c0 0.9-0.4 1.4-1.4 1.4z"/><path class="b" d="m305.8 125.3q-0.1 0-0.3 0c-0.8 0-1.2-0.5-1.2-1.1 0-0.4 0.3-0.6 0.6-0.6 0.3 0 0.6 0.2 0.6 0.5 0 0.3-0.1 0.4-0.3 0.5q0 0-0.1 0c0.1 0.1 0.3 0.2 0.6 0.2 0.6 0 0.9-0.4 1.3-1.1q0.1-0.2 0.1-0.3l-2.1-4.8c-0.1-0.4-0.2-0.4-0.5-0.4h-0.3v-0.5h2.9v0.5h-0.3q-0.1 0-0.1 0-0.3 0-0.2 0.4l1.3 3.1 1.2-3.1c0.1-0.3 0-0.4-0.3-0.4h-0.3v-0.5h2v0.5h-0.3c-0.3 0-0.4 0.1-0.5 0.5l-0.1 0.2-1.9 4.7c-0.5 1.1-1 1.7-1.8 1.7z"/><path class="b" d="m310.1 122.4c0-0.5 0.3-0.8 0.8-0.8 0.5 0 0.9 0.3 0.9 0.8 0 0.5-0.4 0.8-0.9 0.8-0.5 0-0.8-0.3-0.8-0.8z"/></g></svg>